<?xml version="1.0" encoding="utf-8"?><svg xml:space="preserve" viewBox="0 0 100 100" y="0" x="0" xmlns="http://www.w3.org/2000/svg" id="Layer_1" version="1.1" width="47px" height="47px" xmlns:xlink="http://www.w3.org/1999/xlink" style="width:100%;height:100%;background-size:initial;background-repeat-y:initial;background-repeat-x:initial;background-position-y:initial;background-position-x:initial;background-origin:initial;background-color:initial;background-clip:initial;background-attachment:initial;animation-play-state:paused" ><g class="ldl-scale" style="transform-origin:50% 50%;transform:rotate(0deg) scale(0.8, 0.8);animation-play-state:paused" ><path fill="#849b87" opacity=".8" d="M23.4 70.5c1.4 1.5 3.1 2.7 5 3.5L50 50H5l18.4 20.5z" style="fill:rgb(132, 155, 135);animation-play-state:paused" ></path>
<path fill="#e15c64" d="M25 33.6l1 14.9c0 1.4 1.2 2.6 2.6 2.6L50 50 26 28.4c-.6 1.6-1 3.4-1 5.2z" style="fill:rgb(225, 92, 100);animation-play-state:paused" ></path>
<path fill="#e15c64" opacity=".8" d="M29.5 23.4c-1.5 1.4-2.7 3.1-3.5 5L50 50V5L29.5 23.4z" style="fill:rgb(225, 92, 100);animation-play-state:paused" ></path>
<path fill="#f7b26a" opacity=".8" d="M70.5 76.6c1.5-1.4 2.7-3.1 3.5-5L50 50v45l20.5-18.4z" style="fill:rgb(247, 178, 106);animation-play-state:paused" ></path>
<path fill="#79a5b5" d="M66.4 25l-14.9 1c-1.4 0-2.6 1.2-2.6 2.6L50 50l21.6-24c-1.6-.6-3.4-1-5.2-1z" style="fill:rgb(121, 165, 181);animation-play-state:paused" ></path>
<path fill="#79a5b4" opacity=".8" d="M76.6 29.5c-1.4-1.5-3.1-2.7-5-3.5L50 50h45L76.6 29.5z" style="fill:rgb(121, 165, 180);animation-play-state:paused" ></path>
<path fill="#f7b26a" d="M75 66.4l-1-14.9c0-1.4-1.2-2.6-2.6-2.6L50 50l24 21.6c.6-1.6 1-3.4 1-5.2z" style="fill:rgb(247, 178, 106);animation-play-state:paused" ></path>
<path fill="#849b87" d="M33.6 75l14.9-1c1.4 0 2.6-1.2 2.6-2.6L50 50 28.4 74c1.6.6 3.4 1 5.2 1z" style="fill:rgb(132, 155, 135);animation-play-state:paused" ></path>
<circle fill="#666766" r="4" cy="50" cx="50" style="fill:rgb(102, 103, 102);animation-play-state:paused" ></circle>
<metadata xmlns:d="https://loading.io/stock/" style="animation-play-state:paused" ><d:name style="animation-play-state:paused" >pinmill</d:name>


<d:tags style="animation-play-state:paused" >windmill,shuriken,toy,spiral,gyro,blow,breeze,pinmill,spinner</d:tags>


<d:license style="animation-play-state:paused" >by</d:license>


<d:slug style="animation-play-state:paused" >177f25</d:slug></metadata></g><!-- generated by https://loading.io/ --></svg>